<?xml version="1.0" encoding="UTF-8" standalone="no"?>
<!-- Created with Inkscape (http://www.inkscape.org/) -->

<svg
   width="89.414665mm"
   height="87.946198mm"
   viewBox="0 0 89.414665 87.946198"
   version="1.1"
   id="svg1"
   xml:space="preserve"
   inkscape:version="1.4 (86a8ad7, 2024-10-11)"
   sodipodi:docname="hydrazine.svg"
   inkscape:export-filename="hydrazine.jpg"
   inkscape:export-xdpi="96"
   inkscape:export-ydpi="96"
   xmlns:inkscape="http://www.inkscape.org/namespaces/inkscape"
   xmlns:sodipodi="http://sodipodi.sourceforge.net/DTD/sodipodi-0.dtd"
   xmlns="http://www.w3.org/2000/svg"
   xmlns:svg="http://www.w3.org/2000/svg"><sodipodi:namedview
     id="namedview1"
     pagecolor="#ffffff"
     bordercolor="#000000"
     borderopacity="0"
     inkscape:showpageshadow="2"
     inkscape:pageopacity="0.0"
     inkscape:pagecheckerboard="0"
     inkscape:deskcolor="#d1d1d1"
     inkscape:document-units="mm"
     inkscape:zoom="1.5233586"
     inkscape:cx="33.806879"
     inkscape:cy="158.53129"
     inkscape:window-width="1920"
     inkscape:window-height="1057"
     inkscape:window-x="-8"
     inkscape:window-y="160"
     inkscape:window-maximized="1"
     inkscape:current-layer="layer1" /><defs
     id="defs1" /><g
     inkscape:label="Layer 1"
     inkscape:groupmode="layer"
     id="layer1"
     transform="translate(-0.51907837,-0.26929889)"><path
       style="fill:#000000;stroke-width:0.264583"
       d="m 18.759266,23.864347 c -1.307937,1.367923 -2.759267,2.269813 -4.298467,2.886112 -2.10796,0.756351 -4.07989,1.104619 -5.9564396,1.166728 -2.19842,1.30225 -3.26278,3.045525 -3.37737,5.158157 -1.41546,0.389183 -2.54731,-0.178825 -3.50017,-1.350946 C 1.0557194,30.798109 0.58085937,29.812603 0.53683937,28.561956 1.0102794,23.549369 4.6156494,19.00077 7.0920094,14.284911 11.586849,8.6337929 17.098139,3.3382859 23.712146,0.26929889 21.532826,2.6187319 18.757206,4.9797469 17.792109,8.5433899 c 2.883037,-1.422325 6.894947,-3.620566 10.574857,-4.115786 3.62287,-0.411869 5.99419,-0.756086 9.674001,-0.02916 -3.107501,0.901449 -6.267541,1.679372 -9.264731,2.97822 0.27601,-0.04681 -7.26603,3.3750091 -7.19926,5.3156251 0.0134,0.826087 0.65062,0.929747 1.43471,0.863419 1.79446,-0.868242 3.53341,-1.923838 5.54722,-2.051761 2.65949,-0.12867 5.29711,0.135035 7.43765,1.159597 -2.04866,-0.167131 -3.7994,0.112608 -5.3858,0.638862 -2.22865,0.650358 -5.10038,2.267932 -5.42922,3.052666 3.39353,2.515873 6.76909,5.172533 9.45136,8.399672 2.644481,3.645634 3.596451,7.887196 4.647061,11.706055 0.44333,2.65165 0.78341,5.239803 0.66012,7.729561 L 27.277525,43.539419 c 0.4791,-3.177537 1.152921,-5.940601 -0.04413,-9.7886 -0.89807,-2.883267 -2.34378,-4.427875 -3.7458,-6.07926 -1.57612,-1.604038 -3.15222,-2.713176 -4.72832,-3.807211 z"
       id="path1-4"
       sodipodi:nodetypes="cccccccccccccccccccccccccc" /><path
       style="fill:#000000;stroke-width:0.264583"
       d="m 18.741508,63.556403 c -1.30794,-1.36793 -2.75927,-2.26982 -4.29847,-2.88611 -2.10796,-0.75636 -4.07989,-1.104623 -5.9564396,-1.166732 -2.19842,-1.30225 -3.26278,-3.045525 -3.37737,-5.158161 -1.41546,-0.38918 -2.54731,0.17883 -3.50017,1.35095 -0.5711,0.926289 -1.04596003,1.911795 -1.08998003,3.162442 0.47344,5.012591 4.07881003,9.561181 6.55517003,14.277046 4.4948396,5.65113 10.0061296,10.94663 16.6201396,14.01562 -2.17932,-2.34943 -4.95494,-4.71045 -5.92004,-8.27409 2.88304,1.42232 6.89495,3.62056 10.57486,4.11578 3.62287,0.41187 5.99419,0.75609 9.674009,0.0292 -3.107509,-0.90144 -6.267549,-1.67937 -9.264739,-2.97822 0.27601,0.0468 -7.26603,-3.375 -7.19926,-5.31562 0.0134,-0.82609 0.65062,-0.92975 1.43471,-0.86342 1.79446,0.86824 3.53341,1.92383 5.54722,2.05176 2.65949,0.12867 5.29711,-0.13504 7.43765,-1.1596 -2.04866,0.16713 -3.7994,-0.11261 -5.3858,-0.63886 -2.22865,-0.65036 -5.10038,-2.267935 -5.42922,-3.052675 3.39353,-2.51587 6.76909,-5.17253 9.45136,-8.39967 2.644479,-3.645633 3.585599,-7.387853 4.636209,-11.206713 0.44333,-2.65165 0.79876,-5.27818 0.67547,-7.76794 L 27.277038,43.53787 c 0.4791,3.17754 1.13565,6.2841 -0.0614,10.1321 -0.89807,2.883266 -2.34378,4.427874 -3.7458,6.079263 -1.57612,1.60403 -3.15222,2.71317 -4.72832,3.80721 z"
       id="path1-4-7"
       sodipodi:nodetypes="cccccccccccccccccccccccccc" /><path
       style="fill:#000000;stroke-width:0.264583"
       d="m 71.693557,24.928379 c 1.30794,1.367923 2.75927,2.269813 4.29847,2.886112 2.10796,0.756351 4.07989,1.104619 5.95644,1.166728 2.19842,1.30225 3.26278,3.045525 3.37737,5.158157 1.41546,0.389183 2.54731,-0.178825 3.50017,-1.350946 0.5711,-0.926289 1.04596,-1.911795 1.08998,-3.162442 -0.47344,-5.012587 -4.07881,-9.561186 -6.55517,-14.277045 -4.49484,-5.6511181 -10.00613,-10.9466251 -16.62014,-14.0156121 2.17932,2.349433 4.95494,4.710448 5.92004,8.274091 -2.88304,-1.422325 -6.89495,-3.620566 -10.57486,-4.115786 -3.62287,-0.411869 -5.99419,-0.756086 -9.674,-0.02916 3.1075,0.901449 6.26754,1.679372 9.26473,2.97822 -0.27601,-0.04681 7.26603,3.3750091 7.19926,5.3156251 -0.0134,0.826087 -0.65062,0.929747 -1.43471,0.863419 -1.79446,-0.868242 -3.53341,-1.923838 -5.54722,-2.051761 -2.65949,-0.12867 -5.29711,0.135035 -7.43765,1.159597 2.04866,-0.167131 3.7994,0.112608 5.3858,0.638862 2.22865,0.650358 5.10038,2.267932 5.42922,3.052666 -3.39353,2.515873 -6.76909,5.172533 -9.45136,8.399672 -2.64448,3.645634 -3.59645,7.887196 -4.64706,11.706055 -0.44333,2.65165 -0.78341,5.239803 -0.66012,7.729561 l 12.66255,-0.650941 c -0.4791,-3.177537 -1.15292,-5.940601 0.0441,-9.7886 0.89807,-2.883267 2.34378,-4.427875 3.7458,-6.07926 1.57612,-1.604038 3.15222,-2.713176 4.72832,-3.807211 z"
       id="path1-4-4"
       sodipodi:nodetypes="cccccccccccccccccccccccccc" /><path
       style="fill:#000000;stroke-width:0.264583"
       d="m 71.711317,64.620435 c 1.30794,-1.36793 2.75927,-2.26982 4.29847,-2.88611 2.10796,-0.75636 4.07989,-1.104623 5.95644,-1.166732 2.19842,-1.30225 3.26278,-3.045525 3.37737,-5.158161 1.41546,-0.38918 2.54731,0.17883 3.50017,1.35095 0.5711,0.926289 1.04596,1.911795 1.08998,3.162442 -0.47344,5.012591 -4.07881,9.561181 -6.55517,14.277044 -4.49484,5.65113 -10.00613,10.94664 -16.62014,14.01563 2.17932,-2.34943 4.95494,-4.71045 5.92004,-8.2741 -2.88304,1.42232 -6.89495,3.62057 -10.57486,4.11579 -3.62287,0.41187 -5.99419,0.75609 -9.67401,0.0292 3.10751,-0.90144 6.26755,-1.67938 9.26474,-2.97823 -0.27601,0.0468 7.26603,-3.375 7.19926,-5.31562 -0.0134,-0.82609 -0.65062,-0.92975 -1.43471,-0.86342 -1.79446,0.86824 -3.53341,1.92383 -5.54722,2.05176 -2.65949,0.12867 -5.29711,-0.13504 -7.43765,-1.1596 2.04866,0.16713 3.7994,-0.11261 5.3858,-0.63886 2.22865,-0.65036 5.10038,-2.26793 5.42922,-3.05267 -3.39353,-2.515873 -6.76909,-5.172533 -9.45136,-8.399673 -2.64448,-3.645633 -3.5856,-7.387853 -4.63621,-11.206713 -0.44333,-2.65165 -0.79876,-5.27818 -0.67547,-7.76794 l 12.64978,-0.15352 c -0.4791,3.17754 -1.13565,6.2841 0.0614,10.1321 0.89807,2.883266 2.34378,4.427874 3.7458,6.079263 1.57612,1.60403 3.15222,2.71317 4.72832,3.80721 z"
       id="path1-4-7-2"
       sodipodi:nodetypes="cccccccccccccccccccccccccc" /></g></svg>
